<svg width="16" height="18" viewBox="0 0 16 18" fill="none" xmlns="http://www.w3.org/2000/svg">
<path d="M3.42829 9H9.14258M3.42829 11.2857H11.4283M3.42829 13.5714H6.85686M14.8569 14.7143V6.71429L9.14258 1H3.42829C2.82208 1 2.2407 1.24082 1.81205 1.66947C1.38339 2.09812 1.14258 2.67951 1.14258 3.28571V14.7143C1.14258 15.3205 1.38339 15.9019 1.81205 16.3305C2.2407 16.7592 2.82208 17 3.42829 17H12.5712C13.1774 17 13.7587 16.7592 14.1874 16.3305C14.616 15.9019 14.8569 15.3205 14.8569 14.7143Z" stroke="white" stroke-width="1.14286" stroke-linecap="round" stroke-linejoin="round"/>
<path d="M9.14258 1V4.42857C9.14258 5.03478 9.38339 5.61616 9.81205 6.04482C10.2407 6.47347 10.8221 6.71429 11.4283 6.71429H14.8569" stroke="white" stroke-width="1.14286" stroke-linecap="round" stroke-linejoin="round"/>
</svg>
