<svg width="22" height="22" viewBox="0 0 22 22" fill="none" xmlns="http://www.w3.org/2000/svg">
<path d="M10.007 20H8.605C5.02 20 3.228 20 2.114 18.865C1 17.73 1 15.903 1 12.25C1 8.597 1 6.77 2.114 5.635C3.228 4.5 5.02 4.5 8.605 4.5H12.408C15.993 4.5 17.786 4.5 18.9 5.635C19.757 6.508 19.954 7.791 20 10" stroke="white" stroke-width="1.5" stroke-linecap="round" stroke-linejoin="round"/>
<path d="M15 4.5L14.9 4.19C14.405 2.65 14.158 1.88 13.569 1.44C12.979 1 12.197 1 10.63 1H10.367C8.802 1 8.019 1 7.43 1.44C6.84 1.88 6.593 2.65 6.098 4.19L6 4.5M16.111 12.255C16.296 12.085 16.388 12 16.5 12C16.612 12 16.704 12.085 16.889 12.255L17.602 12.912C17.688 12.991 17.731 13.031 17.784 13.05C17.838 13.07 17.896 13.068 18.014 13.063L18.976 13.025C19.224 13.015 19.348 13.011 19.433 13.082C19.518 13.153 19.535 13.276 19.568 13.522L19.7 14.508C19.716 14.622 19.723 14.678 19.751 14.728C19.779 14.776 19.824 14.811 19.914 14.882L20.69 15.492C20.882 15.644 20.978 15.719 20.997 15.827C21.016 15.935 20.951 16.039 20.823 16.247L20.297 17.094C20.237 17.191 20.207 17.24 20.197 17.294C20.187 17.348 20.199 17.405 20.223 17.517L20.432 18.495C20.482 18.735 20.508 18.855 20.453 18.951C20.398 19.047 20.281 19.085 20.048 19.161L19.122 19.462C19.012 19.498 18.956 19.516 18.913 19.552C18.87 19.589 18.843 19.641 18.79 19.744L18.338 20.615C18.223 20.838 18.165 20.949 18.06 20.987C17.955 21.025 17.84 20.977 17.608 20.881L16.72 20.513C16.611 20.468 16.557 20.445 16.5 20.445C16.443 20.445 16.389 20.468 16.28 20.513L15.392 20.881C15.16 20.977 15.045 21.025 14.94 20.987C14.835 20.949 14.777 20.837 14.662 20.615L14.21 19.744C14.156 19.641 14.13 19.589 14.087 19.553C14.044 19.517 13.988 19.498 13.878 19.463L12.952 19.161C12.719 19.085 12.602 19.047 12.547 18.951C12.492 18.855 12.517 18.736 12.568 18.495L12.778 17.517C12.801 17.405 12.813 17.349 12.803 17.295C12.7825 17.2227 12.7486 17.1548 12.703 17.095L12.178 16.247C12.048 16.039 11.984 15.935 12.003 15.827C12.022 15.719 12.118 15.644 12.31 15.493L13.086 14.883C13.176 14.811 13.221 14.776 13.249 14.727C13.277 14.678 13.284 14.622 13.299 14.507L13.432 13.522C13.465 13.277 13.482 13.153 13.567 13.082C13.652 13.011 13.776 13.015 14.024 13.025L14.987 13.063C15.104 13.068 15.162 13.07 15.216 13.05C15.269 13.03 15.312 12.991 15.398 12.912L16.111 12.255Z" stroke="white" stroke-width="1.5" stroke-linecap="round" stroke-linejoin="round"/>
</svg>
