<svg width="31" height="32" viewBox="0 0 31 32" fill="none" xmlns="http://www.w3.org/2000/svg">
<path fill-rule="evenodd" clip-rule="evenodd" d="M10.2283 3.27614C10.2283 1.46734 11.6458 0 13.3933 0H27.7338C28.5728 0.00061161 29.3773 0.346045 29.9703 0.960373C30.5634 1.5747 30.8966 2.40765 30.8966 3.27614V28.7239C30.8966 29.5928 30.5631 30.426 29.9695 31.0404C29.376 31.6548 28.571 32 27.7316 32H16.8101C16.9817 31.5063 17.0776 30.9733 17.0776 30.4196V26.2252C17.0776 26.0337 17.0687 25.8446 17.0553 25.6554C17.4431 25.7269 17.8398 25.7638 18.2388 25.7638H21.2968C22.3699 25.7638 23.4069 25.3632 24.2175 24.6354C25.0282 23.9077 25.558 22.9017 25.7098 21.8021C25.8615 20.7025 25.625 19.5832 25.0436 18.6496C24.4623 17.716 23.5751 17.0308 22.545 16.7198C23.263 16.0256 23.8176 15.1701 24.1658 14.2191C24.5141 13.2682 24.6468 12.2471 24.5538 11.2347C24.4608 10.2222 24.1445 9.24537 23.6292 8.37941C23.114 7.51344 22.4136 6.78146 21.582 6.23985C20.7504 5.69824 19.8098 5.36146 18.8326 5.25545C17.8555 5.14944 16.8678 5.27703 15.9458 5.62839C15.0238 5.97976 14.192 6.54552 13.5145 7.28208C12.837 8.01865 12.3319 8.90637 12.0381 9.87686C11.4619 9.62331 10.8542 9.45478 10.2327 9.37621V3.27614H10.2283ZM14.53 11.8633C14.53 10.8659 14.9128 9.90939 15.5941 9.20413C16.2754 8.49888 17.1995 8.10267 18.163 8.10267C19.1266 8.10267 20.0507 8.49888 20.732 9.20413C21.4133 9.90939 21.7961 10.8659 21.7961 11.8633C21.7961 12.8607 21.4133 13.8172 20.732 14.5225C20.0507 15.2277 19.1266 15.6239 18.163 15.6239C17.1995 15.6239 16.2754 15.2277 15.5941 14.5225C14.9128 13.8172 14.53 12.8607 14.53 11.8633ZM14.715 15.6009L14.7194 15.6078L18.0404 19.0454C18.0664 19.0725 18.0973 19.094 18.1314 19.1087C18.1654 19.1233 18.2019 19.1309 18.2388 19.1308H21.2946C21.8118 19.1308 22.3079 19.3435 22.6736 19.7221C23.0394 20.1007 23.2449 20.6141 23.2449 21.1495C23.2449 21.6849 23.0394 22.1984 22.6736 22.577C22.3079 22.9556 21.8118 23.1683 21.2946 23.1683H18.2388C17.1311 23.1683 16.0679 22.7138 15.2833 21.9017L13.3353 19.8852L11.7528 21.5233L13.3442 23.166C14.1266 23.9781 14.5679 25.0786 14.5679 26.2252V29.8428C14.5679 30.3782 14.3624 30.8917 13.9967 31.2703C13.6309 31.6489 13.1349 31.8616 12.6176 31.8616C12.1004 31.8616 11.6043 31.6489 11.2386 31.2703C10.8728 30.8917 10.6674 30.3782 10.6674 29.8428V26.2252C10.6669 26.1489 10.6372 26.0759 10.5849 26.0222L8.96896 24.3472C8.24206 24.9189 7.35432 25.2284 6.44143 25.2286H1.95026C1.43302 25.2286 0.936962 25.0159 0.571217 24.6373C0.205473 24.2587 0 23.7452 0 23.2098C0 22.6744 0.205473 22.1609 0.571217 21.7823C0.936962 21.4038 1.43302 21.1911 1.95026 21.1911H6.44143C6.4783 21.1911 6.51483 21.1836 6.54888 21.169C6.58293 21.1543 6.61383 21.1328 6.63979 21.1057L10.576 17.029L9.62202 16.0438C9.57012 15.9896 9.49959 15.9589 9.42588 15.9585H5.3738C4.85656 15.9585 4.3605 15.7458 3.99476 15.3672C3.62901 14.9886 3.42354 14.4751 3.42354 13.9397C3.42354 13.4043 3.62901 12.8908 3.99476 12.5123C4.3605 12.1337 4.85656 11.921 5.3738 11.921H9.42811C10.5359 11.921 11.599 12.3778 12.3814 13.1899L14.7083 15.5963L14.715 15.6009Z" fill="#FF2828"/>
</svg>
