<svg width="24" height="24" viewBox="0 0 24 24" fill="none" xmlns="http://www.w3.org/2000/svg">
<mask id="mask0_485_119" style="mask-type:luminance" maskUnits="userSpaceOnUse" x="3" y="1" width="18" height="22">
<path d="M12 22C12 22 19.5 16 19.5 9.5C19.5 5.358 16.142 2 12 2C7.858 2 4.5 5.358 4.5 9.5C4.5 16 12 22 12 22Z" fill="white" stroke="white" stroke-width="2" stroke-linejoin="round"/>
<path d="M12 12.5C12.394 12.5 12.7841 12.4224 13.1481 12.2716C13.512 12.1209 13.8427 11.8999 14.1213 11.6213C14.3999 11.3427 14.6209 11.012 14.7716 10.6481C14.9224 10.2841 15 9.89397 15 9.5C15 9.10603 14.9224 8.71593 14.7716 8.35195C14.6209 7.98797 14.3999 7.65726 14.1213 7.37868C13.8427 7.1001 13.512 6.87913 13.1481 6.72836C12.7841 6.5776 12.394 6.5 12 6.5C11.2044 6.5 10.4413 6.81607 9.87868 7.37868C9.31607 7.94129 9 8.70435 9 9.5C9 10.2956 9.31607 11.0587 9.87868 11.6213C10.4413 12.1839 11.2044 12.5 12 12.5Z" fill="black" stroke="black" stroke-width="2" stroke-linejoin="round"/>
</mask>
<g mask="url(#mask0_485_119)">
<path d="M0 0H24V24H0V0Z" fill="black"/>
</g>
</svg>
