<svg width="14" height="20" viewBox="0 0 14 20" fill="none" xmlns="http://www.w3.org/2000/svg">
<path d="M2.5 14C2.36739 14 2.24021 14.0527 2.14645 14.1464C2.05268 14.2402 2 14.3674 2 14.5C2 14.6326 2.05268 14.7598 2.14645 14.8536C2.24021 14.9473 2.36739 15 2.5 15H11.5C11.6326 15 11.7598 14.9473 11.8536 14.8536C11.9473 14.7598 12 14.6326 12 14.5C12 14.3674 11.9473 14.2402 11.8536 14.1464C11.7598 14.0527 11.6326 14 11.5 14H2.5ZM2 16.5C2 16.3674 2.05268 16.2402 2.14645 16.1464C2.24021 16.0527 2.36739 16 2.5 16H8.5C8.63261 16 8.75979 16.0527 8.85355 16.1464C8.94732 16.2402 9 16.3674 9 16.5C9 16.6326 8.94732 16.7598 8.85355 16.8536C8.75979 16.9473 8.63261 17 8.5 17H2.5C2.36739 17 2.24021 16.9473 2.14645 16.8536C2.05268 16.7598 2 16.6326 2 16.5Z" fill="white"/>
<path fill-rule="evenodd" clip-rule="evenodd" d="M5.46154 5.80749C5.42356 5.7164 5.35947 5.63858 5.27735 5.58384C5.19522 5.5291 5.09873 5.49989 5.00004 5.49989C4.90134 5.49989 4.80485 5.5291 4.72273 5.58384C4.6406 5.63858 4.57652 5.7164 4.53854 5.80749L2.66754 10.2975L2.65904 10.3185L2.03854 11.8075C1.98748 11.9299 1.98714 12.0676 2.03759 12.1902C2.08804 12.3129 2.18514 12.4104 2.30754 12.4615C2.42994 12.5125 2.5676 12.5129 2.69025 12.4624C2.8129 12.412 2.91048 12.3149 2.96154 12.1925L3.45854 11H6.54154L7.03854 12.1925C7.08959 12.3149 7.18718 12.412 7.30983 12.4624C7.43248 12.5129 7.57014 12.5125 7.69254 12.4615C7.81494 12.4104 7.91204 12.3129 7.96249 12.1902C8.01293 12.0676 8.01259 11.9299 7.96154 11.8075L7.34104 10.3185L7.33254 10.2975L5.46154 5.80749ZM5.00004 7.29999L6.12504 9.99999H3.87504L5.00004 7.29999Z" fill="white"/>
<path d="M10 8.5C10.1326 8.5 10.2598 8.55268 10.3536 8.64645C10.4473 8.74021 10.5 8.86739 10.5 9V10H11.5C11.6326 10 11.7598 10.0527 11.8536 10.1464C11.9473 10.2402 12 10.3674 12 10.5C12 10.6326 11.9473 10.7598 11.8536 10.8536C11.7598 10.9473 11.6326 11 11.5 11H10.5V12C10.5 12.1326 10.4473 12.2598 10.3536 12.3536C10.2598 12.4473 10.1326 12.5 10 12.5C9.86739 12.5 9.74021 12.4473 9.64645 12.3536C9.55268 12.2598 9.5 12.1326 9.5 12V11H8.5C8.36739 11 8.24021 10.9473 8.14645 10.8536C8.05268 10.7598 8 10.6326 8 10.5C8 10.3674 8.05268 10.2402 8.14645 10.1464C8.24021 10.0527 8.36739 10 8.5 10H9.5V9C9.5 8.86739 9.55268 8.74021 9.64645 8.64645C9.74021 8.55268 9.86739 8.5 10 8.5Z" fill="white"/>
<path fill-rule="evenodd" clip-rule="evenodd" d="M14 5.5L9 0H2C1.46957 0 0.960859 0.210714 0.585786 0.585786C0.210714 0.960859 0 1.46957 0 2V18C0 18.5304 0.210714 19.0391 0.585786 19.4142C0.960859 19.7893 1.46957 20 2 20H12C12.5304 20 13.0391 19.7893 13.4142 19.4142C13.7893 19.0391 14 18.5304 14 18V5.5ZM8.5 5.5C8.5 5.63261 8.55268 5.75979 8.64645 5.85355C8.74021 5.94732 8.86739 6 9 6H13V18C13 18.2652 12.8946 18.5196 12.7071 18.7071C12.5196 18.8946 12.2652 19 12 19H2C1.73478 19 1.48043 18.8946 1.29289 18.7071C1.10536 18.5196 1 18.2652 1 18V2C1 1.73478 1.10536 1.48043 1.29289 1.29289C1.48043 1.10536 1.73478 1 2 1H8.5V5.5ZM12.194 5L9.5 2.0365V5H12.194Z" fill="white"/>
</svg>
