<svg width="19" height="19" viewBox="0 0 19 19" fill="none" xmlns="http://www.w3.org/2000/svg">
<path d="M8.42857 3.14285H3.28571C2.67951 3.14285 2.09812 3.38367 1.66947 3.81232C1.24082 4.24098 1 4.82236 1 5.42857V15.7143C1 16.3205 1.24082 16.9019 1.66947 17.3305C2.09812 17.7592 2.67951 18 3.28571 18H14.7143C15.3205 18 15.9019 17.7592 16.3305 17.3305C16.7592 16.9019 17 16.3205 17 15.7143V10.5714" stroke="white" stroke-width="1.14286" stroke-linecap="round" stroke-linejoin="round"/>
<path d="M14.7141 4.28571L15.8033 5.42857M16.9999 1.96228C17.3045 2.27732 17.4732 2.69944 17.4696 3.13769C17.466 3.57593 17.2903 3.9952 16.9804 4.30514L8.99986 12.2857L5.57129 13.4286L6.71415 9.99999L14.6993 1.94742C14.98 1.66454 15.3557 1.49581 15.7536 1.47385C16.1515 1.4519 16.5434 1.57828 16.8536 1.82857L16.9999 1.96228Z" stroke="white" stroke-width="1.14286" stroke-linecap="round" stroke-linejoin="round"/>
</svg>
