<svg width="24" height="24" viewBox="0 0 24 24" fill="none" xmlns="http://www.w3.org/2000/svg">
<path d="M21.6477 2.52235C21.6397 2.48388 21.6209 2.44849 21.5935 2.42033C21.5661 2.39218 21.5313 2.37245 21.493 2.36344C18.944 1.74 13.0555 3.96141 9.86193 7.15266C9.29278 7.71717 8.77379 8.3301 8.31084 8.98453C7.32646 8.89547 6.34209 8.97047 5.50396 9.3361C3.13725 10.3767 2.44865 13.0945 2.25646 14.2613C2.24605 14.3252 2.2505 14.3907 2.26946 14.4526C2.28843 14.5145 2.32139 14.5713 2.36582 14.6184C2.41024 14.6655 2.46492 14.7018 2.52561 14.7244C2.58631 14.747 2.6514 14.7554 2.71584 14.7488L6.516 14.3316C6.5186 14.6182 6.53581 14.9045 6.56756 15.1894C6.58739 15.3863 6.67524 15.5701 6.81599 15.7092L8.2874 17.1806C8.42663 17.3215 8.61065 17.4093 8.80771 17.4291C9.09088 17.4606 9.37546 17.4778 9.66037 17.4806L9.24365 21.2775C9.23715 21.3419 9.24552 21.4068 9.26814 21.4674C9.29075 21.528 9.327 21.5826 9.37407 21.627C9.42115 21.6713 9.47779 21.7043 9.53963 21.7232C9.60146 21.7422 9.66683 21.7467 9.73068 21.7364C10.8979 21.5489 13.6213 20.8603 14.6558 18.4941C15.0215 17.655 15.0965 16.6758 15.0121 15.6961C15.6685 15.2336 16.2831 14.7146 16.8491 14.145C20.0544 10.9575 22.2618 5.19844 21.6477 2.52235ZM14.0001 10.0158C13.7201 9.73588 13.5294 9.37924 13.4521 8.99096C13.3749 8.60268 13.4145 8.20021 13.566 7.83445C13.7174 7.46868 13.974 7.15605 14.3032 6.9361C14.6323 6.71614 15.0193 6.59874 15.4152 6.59874C15.8111 6.59874 16.1981 6.71614 16.5273 6.9361C16.8564 7.15605 17.113 7.46868 17.2645 7.83445C17.4159 8.20021 17.4556 8.60268 17.3783 8.99096C17.301 9.37924 17.1103 9.73588 16.8304 10.0158C16.6447 10.2019 16.4241 10.3495 16.1813 10.4503C15.9384 10.551 15.6781 10.6028 15.4152 10.6028C15.1523 10.6028 14.892 10.551 14.6492 10.4503C14.4063 10.3495 14.1858 10.2019 14.0001 10.0158Z" stroke="black" stroke-width="1.5" stroke-linecap="round" stroke-linejoin="round"/>
<path d="M5.13937 16.5C4.67208 16.5574 4.23735 16.7692 3.90422 17.1019C3.07828 17.9306 3 21 3 21C3 21 6.07125 20.9217 6.89766 20.0948C7.23168 19.7622 7.44387 19.3268 7.5 18.8588" stroke="black" stroke-width="1.5" stroke-linecap="round" stroke-linejoin="round"/>
</svg>
