<svg width="241" height="295" viewBox="0 0 241 295" fill="none" xmlns="http://www.w3.org/2000/svg">
<path fill-rule="evenodd" clip-rule="evenodd" d="M120.127 209.241C125.618 209.241 130.069 215.656 130.069 223.569C130.069 231.483 125.618 237.898 120.127 237.898C114.636 237.898 110.185 231.483 110.185 223.569C110.185 215.656 114.636 209.241 120.127 209.241Z" fill="#202128"/>
<path d="M120.064 224.317V65.7881" stroke="#202128" stroke-width="20"/>
<path fill-rule="evenodd" clip-rule="evenodd" d="M190.593 143.905H111.81V62.4319H190.593V143.905Z" fill="#3D3E44"/>
<path d="M191.125 224.317V65.7881L220.17 74.5321" stroke="#202128" stroke-width="20" stroke-linejoin="round"/>
<path d="M154.548 179.622L85.7061 267.517" stroke="#202128" stroke-width="7"/>
<path d="M85.7061 179.622L154.548 267.517" stroke="#202128" stroke-width="7"/>
<path d="M161.457 223.569H78.7979" stroke="#202128" stroke-width="7"/>
<path d="M120.127 159.53V287.608" stroke="#202128" stroke-width="7"/>
<path fill-rule="evenodd" clip-rule="evenodd" d="M120.064 153.783C147.094 153.783 169.006 185.362 169.006 224.317C169.006 263.272 147.094 294.851 120.064 294.851C93.0349 294.851 71.123 263.272 71.123 224.317C71.123 185.362 93.0349 153.783 120.064 153.783ZM120.064 164.83C110.762 164.83 101.726 170.469 94.6209 180.709C90.8019 186.214 87.7839 192.688 85.6519 199.952C83.3949 207.644 82.2499 215.841 82.2499 224.317C82.2499 232.793 83.3949 240.99 85.6519 248.681C87.7839 255.946 90.8019 262.421 94.6209 267.925C101.726 278.165 110.762 283.804 120.064 283.804C129.367 283.804 138.403 278.165 145.508 267.925C149.327 262.421 152.345 255.946 154.477 248.681C156.734 240.99 157.879 232.793 157.879 224.317C157.879 215.841 156.734 207.644 154.477 199.952C152.345 192.688 149.327 186.214 145.508 180.709C138.403 170.469 129.367 164.83 120.064 164.83Z" fill="#868B9B"/>
<path d="M191.188 159.53V287.608" stroke="#202128" stroke-width="7"/>
<path d="M56.9489 257.765V140.814" stroke="#202128" stroke-width="20"/>
<path fill-rule="evenodd" clip-rule="evenodd" d="M55.1015 253.253C63.0722 253.253 69.5331 262.565 69.5331 274.052C69.5331 285.539 63.0722 294.851 55.1015 294.851C47.1309 294.851 40.67 285.539 40.67 274.052C40.67 262.565 47.1309 253.253 55.1015 253.253ZM55.1015 262.328C53.566 262.328 49.8101 266.436 49.8101 274.052C49.8101 281.668 53.566 285.776 55.1015 285.776C56.6371 285.776 60.3929 281.668 60.3929 274.052C60.3929 266.436 56.6371 262.328 55.1015 262.328Z" fill="#202128"/>
<path fill-rule="evenodd" clip-rule="evenodd" d="M171.93 185.206H56.948V167.485H171.93V185.206Z" fill="#202128"/>
<path fill-rule="evenodd" clip-rule="evenodd" d="M189.415 185.206H127.082V167.485H189.415V185.206Z" fill="#3D3E44"/>
<path fill-rule="evenodd" clip-rule="evenodd" d="M33.0597 256.644L32.9461 246.263L45.5564 239.522L47.3864 269.196H3.69617C11.1304 260.309 33.0597 256.644 33.0597 256.644ZM87.128 256.233L87.008 243.886L100.626 243.2L101.865 255.55L105.032 269.097H73.3654C77.3466 257.589 87.128 256.233 87.128 256.233Z" fill="#012E8B"/>
<path fill-rule="evenodd" clip-rule="evenodd" d="M87.008 243.886L100.362 239.627L101.865 255.55L87.128 256.233L87.008 243.886ZM32.9459 246.263L45.5562 242.242L46.5724 255.999L33.0596 256.644L32.9459 246.263Z" fill="#008A00"/>
<path fill-rule="evenodd" clip-rule="evenodd" d="M108.985 278.908H0.376343V269.196H108.985V278.908Z" fill="#202128"/>
<path fill-rule="evenodd" clip-rule="evenodd" d="M113.278 278.908H76.9214V269.196H113.278V278.908Z" fill="#3D3E44"/>
<path fill-rule="evenodd" clip-rule="evenodd" d="M191.125 153.783C218.155 153.783 240.066 185.362 240.066 224.317C240.066 263.272 218.155 294.851 191.125 294.851C164.096 294.851 142.184 263.272 142.184 224.317C142.184 185.362 164.096 153.783 191.125 153.783ZM191.125 164.83C181.823 164.83 172.787 170.469 165.682 180.709C161.863 186.214 158.845 192.688 156.713 199.952C154.455 207.644 153.311 215.841 153.311 224.317C153.311 232.793 154.455 240.99 156.713 248.681C158.845 255.946 161.863 262.421 165.682 267.925C172.787 278.165 181.823 283.804 191.125 283.804C200.428 283.804 209.463 278.165 216.569 267.925C220.388 262.421 223.405 255.946 225.537 248.681C227.795 240.99 228.939 232.793 228.939 224.317C228.939 215.841 227.795 207.644 225.537 199.952C223.405 192.688 220.388 186.214 216.569 180.709C209.463 170.469 200.428 164.83 191.125 164.83Z" fill="#BFC4D6"/>
<path d="M131.19 257.765L131.306 168.76" stroke="#3D3E44" stroke-width="20"/>
<path fill-rule="evenodd" clip-rule="evenodd" d="M126.162 253.253C134.133 253.253 140.594 262.565 140.594 274.052C140.594 285.539 134.133 294.851 126.162 294.851C118.192 294.851 111.731 285.539 111.731 274.052C111.731 262.565 118.192 253.253 126.162 253.253ZM126.162 262.328C124.627 262.328 120.871 266.436 120.871 274.052C120.871 281.668 124.627 285.776 126.162 285.776C127.698 285.776 131.454 281.668 131.454 274.052C131.454 266.436 127.698 262.328 126.162 262.328Z" fill="#3D3E44"/>
<path fill-rule="evenodd" clip-rule="evenodd" d="M191.556 208.771C197.047 208.771 201.498 215.186 201.498 223.099C201.498 231.013 197.047 237.428 191.556 237.428C186.065 237.428 181.614 231.013 181.614 223.099C181.614 215.186 186.065 208.771 191.556 208.771Z" fill="#202128"/>
<path d="M221.234 185.206L161.877 260.992" stroke="#202128" stroke-width="7"/>
<path d="M162.313 186.703L222.327 263.326" stroke="#202128" stroke-width="7"/>
<path d="M230.99 223.569H153.548" stroke="#202128" stroke-width="7"/>
<path d="M72.2886 168.76L80.8303 250.646H103.801L99.913 168.76H128.125C140.464 168.76 150.466 158.941 150.466 146.828V137.08H117.489H41.3171C25.3452 137.08 12.9861 150.949 14.9619 166.654L25.9965 250.646H49.3597L48.2839 168.76H72.2886Z" fill="#19141E"/>
<path fill-rule="evenodd" clip-rule="evenodd" d="M150.466 137.08H88.3979C78.038 137.08 69.9386 145.853 70.9548 155.975L80.8302 250.646H103.801L99.9129 168.76H128.125C140.464 168.76 150.466 158.941 150.466 146.828V137.08Z" fill="white" fill-opacity="0.1"/>
<path fill-rule="evenodd" clip-rule="evenodd" d="M96.0209 19.4167C96.0209 19.4167 85.5239 33.1071 99.7749 36.7412L96.0209 19.4167Z" fill="#19141E"/>
<path d="M115.578 66.4789L115.927 54.4076C115.927 54.4076 100.906 55.5755 97.77 53.9454C97.77 53.9454 95.388 39.2772 97.653 28.8771L109.988 17.7297L129.894 19.1966L132.154 37.2298C133.195 34.1542 142.678 30.2988 144.954 37.1982C147.889 46.095 130.971 50.7702 130.971 50.7702L132.739 66.6239" fill="#F0A785"/>
<path d="M139.051 18.5095L143.926 13.5394L141.264 10.9393L136.813 15.4781L136.379 15.2705L137.528 8.87576L133.861 8.21996L132.941 13.3446C124.063 7.92026 117.051 12.1486 117.051 12.1486C117.051 12.1486 114.221 0.268364 106.388 0.302564C95.228 0.350764 93.506 17.6083 93.506 17.6083C93.506 17.6083 87.881 8.22296 84.683 9.56446C81.485 10.9063 81.397 42.0789 125.798 26.8874C125.798 26.8874 121.98 35.4842 132.153 37.2301C132.153 37.2301 133.927 33.5607 139.94 33.3534C139.94 33.3534 149.187 29.5876 139.051 18.5095Z" fill="black"/>
<path opacity="0.4" fill-rule="evenodd" clip-rule="evenodd" d="M115.928 54.4075L125.81 52.2866L115.975 58.9364L115.928 54.4075Z" fill="black"/>
<path fill-rule="evenodd" clip-rule="evenodd" d="M107.588 36.2439L104.173 44.6003L108.266 44.6525L107.588 36.2439Z" fill="#906450"/>
<path fill-rule="evenodd" clip-rule="evenodd" d="M111.669 37.0557C111.466 38.181 112.212 39.2582 113.336 39.4615C114.461 39.6652 115.537 38.9181 115.74 37.7928C115.943 36.6675 115.197 35.5903 114.073 35.387C112.948 35.1833 111.873 35.9304 111.669 37.0557Z" fill="black"/>
<path fill-rule="evenodd" clip-rule="evenodd" d="M100.93 37.0557C100.726 38.181 101.473 39.2582 102.597 39.4615C103.721 39.6652 104.798 38.9181 105.001 37.7928C105.204 36.6675 104.458 35.5903 103.333 35.387C102.209 35.1833 101.133 35.9304 100.93 37.0557Z" fill="black"/>
<path fill-rule="evenodd" clip-rule="evenodd" d="M112.877 45.9719C112.877 45.9719 111.563 48.3615 108.723 48.3049L112.877 45.9719Z" fill="white"/>
<path d="M112.877 45.9719C112.877 45.9719 111.563 48.3615 108.723 48.3049" stroke="black" stroke-width="4"/>
<path fill-rule="evenodd" clip-rule="evenodd" d="M181.649 109.85C180.725 122.216 170.2 128.326 161.982 131.23L162.624 134.641C163.623 139.95 159.169 144.804 153.299 144.804H99.562C93.799 144.804 89.374 140.117 90.195 134.882L90.726 131.5C82.229 128.733 70.4516 122.98 70.7473 112.4C71.2046 96.0439 89.262 80.6579 98.863 73.6119C102.337 69.8799 107.322 68.3999 114.486 66.2739C115.297 66.0339 116.136 65.7849 117.003 65.5229C117.003 65.5229 140.056 61.7949 151.728 67.2279C154.789 68.6519 157.308 70.6859 159.375 72.9969C168.885 80.6399 182.791 94.5509 181.649 109.85Z" fill="#F2D524"/>
<path opacity="0.199009" d="M96.201 99.5621L98.456 100.641L98.298 100.972L98.051 101.244L96.201 99.5621ZM103.047 85.2541L100.792 84.1751L101.871 81.9201L104.126 82.9991L103.047 85.2541ZM107.557 87.4121L108.636 85.1571L110.892 86.2361L109.812 88.4911L107.557 87.4121ZM99.196 104.888L101.451 105.967L100.001 108.998L97.515 106.738L99.196 104.888ZM94.905 100.989L93.224 102.839L91.373 101.158L93.055 99.3081L94.905 100.989ZM97.585 96.6691L95.33 95.5901L96.78 92.5601L99.267 94.8191L97.585 96.6691ZM96.062 99.8541L94.983 102.109L92.728 101.03L93.807 98.7751L96.062 99.8541ZM98.271 100.911L99.35 98.6551L102.38 100.105L100.121 102.592L98.271 100.911ZM96.709 102.629L95.028 104.479L93.178 102.798L94.859 100.948L96.709 102.629ZM103.621 108.909L105.471 110.59L103.79 112.441L101.94 110.759L103.621 108.909ZM106.983 105.209L108.665 103.358L110.515 105.04L108.834 106.89L106.983 105.209ZM138.534 83.8751L136.297 84.9921L135.18 82.7561L137.417 81.6391L138.534 83.8751ZM147.864 102.559L148.974 104.8L146.74 105.906L145.627 103.676L147.864 102.559ZM154.748 99.1481L156.988 98.0381L158.098 100.278L155.858 101.388L154.748 99.1481ZM152.528 94.6681L151.418 92.4281L153.658 91.3181L154.768 93.5581L152.528 94.6681ZM150.11 95.8661L151.22 98.1061L148.987 99.2131L147.873 96.9831L150.11 95.8661ZM143.007 81.6421L141.89 79.4051L144.127 78.2881L145.244 80.5251L143.007 81.6421ZM150.11 95.8661L149 93.6261L151.233 92.5191L152.347 94.7491L150.11 95.8661ZM132.042 104.819L129.802 105.929L128.692 103.689L130.932 102.579L132.042 104.819ZM134.262 109.299L135.372 111.539L133.132 112.649L132.022 110.409L134.262 109.299ZM150.097 101.453L152.337 100.343L153.447 102.583L151.207 103.693L150.097 101.453ZM149.4 100.047L147.16 101.157L146.054 98.9241L148.283 97.8111L149.4 100.047ZM151.64 98.9291L153.876 97.8121L154.993 100.049L152.756 101.166L151.64 98.9291ZM93.946 98.4831L100.792 84.1751L105.302 86.3331L98.456 100.641L93.946 98.4831ZM104.126 82.9991L108.636 85.1571L106.478 89.6681L101.968 87.5101L104.126 82.9991ZM109.812 88.4911L102.901 102.937L98.391 100.779L105.302 86.3331L109.812 88.4911ZM102.901 102.937L101.451 105.967L96.941 103.809L98.391 100.779L102.901 102.937ZM97.515 106.738L95.028 104.479L98.391 100.779L100.877 103.038L97.515 106.738ZM95.028 104.479L93.224 102.839L96.586 99.1391L98.391 100.779L95.028 104.479ZM93.055 99.3081L94.351 97.8811L98.051 101.244L96.755 102.67L93.055 99.3081ZM93.88 98.6211L95.33 95.5901L99.841 97.7481L98.391 100.779L93.88 98.6211ZM93.807 98.7751L93.88 98.6211L98.391 100.779L98.317 100.933L93.807 98.7751ZM97.192 103.166L94.983 102.109L97.141 97.5991L99.35 98.6551L97.192 103.166ZM94.859 100.948L96.42 99.2291L100.121 102.592L98.56 104.31L94.859 100.948ZM101.94 110.759L95.028 104.479L98.391 100.779L105.302 107.059L101.94 110.759ZM108.834 106.89L105.471 110.59L101.771 107.228L105.133 103.527L108.834 106.89ZM101.753 97.0781L108.665 103.358L105.302 107.059L98.391 100.779L101.753 97.0781ZM99.267 94.8191L101.753 97.0781L98.391 100.779L95.904 98.5191L99.267 94.8191ZM144.513 101.446L136.297 84.9921L140.771 82.7591L148.987 99.2131L144.513 101.446ZM145.627 103.676L144.513 101.446L148.987 99.2131L150.1 101.443L145.627 103.676ZM151.207 103.693L148.974 104.8L146.754 100.319L148.987 99.2131L151.207 103.693ZM155.858 101.388L151.207 103.693L148.987 99.2131L153.638 96.9081L155.858 101.388ZM154.768 93.5581L156.988 98.0381L152.508 100.258L150.288 95.7781L154.768 93.5581ZM149 93.6261L151.418 92.4281L153.638 96.9081L151.22 98.1061L149 93.6261ZM145.244 80.5251L152.347 94.7491L147.873 96.9831L140.771 82.7591L145.244 80.5251ZM137.417 81.6391L141.89 79.4051L144.124 83.8781L139.651 86.1121L137.417 81.6391ZM146.767 94.7331L149 93.6261L151.22 98.1061L148.987 99.2131L146.767 94.7331ZM130.932 102.579L146.767 94.7331L148.987 99.2131L133.152 107.059L130.932 102.579ZM132.022 110.409L129.802 105.929L134.282 103.709L136.502 108.189L132.022 110.409ZM151.207 103.693L135.372 111.539L133.152 107.059L148.987 99.2131L151.207 103.693ZM151.64 98.9371L152.337 100.343L147.857 102.563L147.16 101.157L151.64 98.9371ZM152.756 101.166L150.517 102.284L148.283 97.8111L150.523 96.6931L152.756 101.166ZM153.46 96.9791L153.876 97.8121L149.403 100.046L148.987 99.2131L153.46 96.9791ZM152.347 94.7491L153.46 96.9791L148.987 99.2131L147.873 96.9831L152.347 94.7491Z" fill="black"/>
<path opacity="0.203218" fill-rule="evenodd" clip-rule="evenodd" d="M118.886 80.969C118.886 82.388 120.045 83.538 121.475 83.538C122.905 83.538 124.064 82.388 124.064 80.969C124.064 79.55 121.475 75.937 121.475 75.937C121.475 75.937 118.886 79.55 118.886 80.969Z" fill="black"/>
<path opacity="0.195964" d="M144.014 132.125C144.014 132.125 133.21 131.98 133.152 105.596" stroke="black" stroke-width="5"/>
<path opacity="0.199009" d="M96.5859 130.894C96.5859 130.894 104.819 130.761 104.863 106.668" stroke="black" stroke-width="5"/>
<path opacity="0.203497" d="M120.923 83.5381C119.32 95.0031 115.055 106.006 117.81 144.791" stroke="black" stroke-width="3"/>
<path fill-rule="evenodd" clip-rule="evenodd" d="M155.166 68.725C155.166 68.725 152.394 55.1479 134.713 55.1832C126.42 55.1998 124.687 59.766 125.185 64.611C125.199 64.75 125.72 64.679 126.048 64.634C126.12 64.624 126.182 64.615 126.228 64.611C127.485 64.479 127.974 64.452 128.771 64.408C128.918 64.4 129.075 64.391 129.25 64.381C129.281 64.38 129.312 64.378 129.343 64.376L121.717 72.751L116.794 59.86L106.905 68.305L121.899 77.747C121.899 77.747 137.54 67.949 142.687 64.901L155.166 68.725ZM96.5911 138.306H117.987H143.945L143.532 132.293C137.02 130.008 133.335 122.201 133.446 105.596L118.581 105.813L105.431 106.006C105.302 120.534 102.637 127.103 97.0051 131.882L96.5911 138.306Z" fill="#EFEFEF"/>
<path opacity="0.201474" d="M120.923 83.5381C119.194 93.9441 115.025 105.91 117.78 144.694" stroke="black" stroke-width="3"/>
</svg>
